<?xml version="1.0" standalone="no"?>
<!DOCTYPE svg PUBLIC "-//W3C//DTD SVG 20010904//EN"
 "http://www.w3.org/TR/2001/REC-SVG-20010904/DTD/svg10.dtd">
<svg version="1.0" xmlns="http://www.w3.org/2000/svg"
 width="3355.000000pt" height="3355.000000pt" viewBox="0 0 3355.000000 3355.000000"
 preserveAspectRatio="xMidYMid meet">
<metadata>
Created by potrace 1.14, written by Peter Selinger 2001-2017
</metadata>
<g transform="translate(0.000000,3355.000000) scale(0.100000,-0.100000)"
fill="#000000" stroke="none">
<path d="M4250 28863 c-130 -16 -242 -64 -352 -151 -43 -34 -78 -66 -78 -70 0
-4 -13 -20 -28 -37 -56 -60 -171 -277 -187 -354 -2 -9 -13 -54 -24 -101 -36
-148 -40 -237 -30 -655 5 -219 -4 -286 -57 -443 -51 -154 -58 -207 -35 -283 9
-29 16 -64 15 -76 -1 -13 -2 -32 -3 -42 -1 -18 -84 -149 -101 -161 -16 -11
-51 -93 -64 -149 -23 -100 -3 -197 71 -345 108 -218 276 -402 438 -483 56 -28
95 -60 95 -79 0 -6 -18 -51 -40 -98 -120 -257 -83 -469 112 -651 31 -29 65
-58 75 -64 14 -8 16 -14 7 -28 -9 -14 -25 -18 -75 -20 -161 -4 -240 -22 -304
-68 -40 -29 -63 -36 -71 -24 -4 6 -6 42 -5 80 2 79 -13 121 -57 163 -56 53
-145 45 -214 -19 -15 -14 -45 -34 -68 -46 -56 -29 -106 -21 -217 34 -114 57
-134 65 -218 80 -235 44 -456 -56 -600 -273 -99 -149 -140 -289 -139 -480 0
-131 9 -185 67 -398 33 -119 31 -195 -6 -276 -45 -98 -36 -175 42 -342 83
-177 222 -327 376 -406 47 -24 75 -54 75 -79 0 -10 -16 -55 -36 -100 -97 -220
-74 -374 79 -537 127 -133 282 -216 422 -226 96 -6 127 -24 179 -104 120 -182
288 -270 566 -298 112 -11 178 -9 345 12 135 17 170 16 198 -6 15 -12 27 -26
27 -31 0 -35 61 -126 138 -209 77 -82 88 -98 82 -120 -6 -22 -13 -26 -66 -31
-78 -7 -441 -4 -479 5 -140 31 -196 39 -305 42 -209 4 -314 -24 -385 -105 -50
-57 -67 -105 -70 -202 -4 -137 -32 -161 -167 -143 -150 20 -275 9 -410 -36
-315 -106 -496 -345 -483 -639 10 -225 155 -523 359 -738 80 -84 218 -196 285
-230 20 -10 43 -23 51 -29 26 -19 188 -85 285 -115 127 -40 151 -67 169 -199
36 -250 188 -413 419 -445 23 -3 49 -8 57 -10 65 -17 266 -22 380 -11 75 8
252 52 293 73 16 8 47 15 70 15 47 0 67 -18 126 -115 76 -124 145 -169 261
-172 246 -6 466 62 601 186 111 103 118 107 138 102 11 -3 39 -35 62 -72 23
-36 52 -82 65 -101 37 -59 90 -109 135 -129 58 -26 170 -21 304 13 188 49 344
146 474 296 83 94 112 99 186 26 23 -22 70 -58 104 -79 39 -24 61 -44 61 -56
0 -10 -21 -34 -48 -54 -26 -20 -51 -40 -57 -44 -19 -15 -90 -60 -170 -108
-109 -66 -222 -145 -335 -235 -133 -105 -157 -127 -315 -283 -393 -387 -615
-734 -754 -1178 -6 -20 -13 -45 -16 -55 -2 -10 -11 -49 -19 -85 -9 -37 -18
-86 -21 -110 -3 -24 -7 -60 -10 -79 -15 -100 -21 -365 -10 -467 45 -449 197
-806 464 -1094 45 -48 113 -113 152 -145 132 -108 169 -148 162 -172 -5 -20
-73 -87 -263 -258 -78 -70 -215 -192 -244 -217 -12 -10 -35 -31 -51 -45 -17
-15 -62 -54 -100 -87 -39 -33 -72 -62 -75 -65 -3 -3 -34 -30 -70 -60 -36 -30
-67 -57 -70 -60 -3 -3 -41 -34 -85 -69 -199 -160 -243 -249 -195 -392 39 -114
118 -221 315 -424 22 -23 123 -129 225 -235 263 -274 294 -306 479 -495 186
-191 226 -244 237 -313 9 -55 9 -64 0 -154 -7 -68 -13 -138 -21 -263 -6 -87
-6 -550 -1 -705 16 -420 27 -549 58 -705 5 -27 12 -63 15 -80 2 -16 12 -55 20
-85 8 -30 19 -70 23 -89 5 -19 30 -96 56 -171 59 -169 55 -196 -31 -215 -269
-62 -652 -175 -790 -235 -11 -5 -65 -27 -120 -50 -381 -159 -771 -401 -1076
-670 -76 -67 -254 -243 -370 -367 -113 -120 -286 -220 -430 -248 -35 -7 -150
-26 -179 -30 -14 -1 -52 -6 -85 -10 -33 -5 -67 -9 -75 -10 -38 -5 -127 -18
-145 -21 -10 -2 -35 -6 -55 -9 -38 -6 -70 -12 -110 -20 -14 -3 -34 -7 -45 -9
-188 -38 -400 -116 -498 -185 -192 -135 -272 -329 -206 -507 17 -48 84 -153
155 -244 38 -48 130 -157 141 -165 6 -5 23 -29 36 -53 34 -60 26 -92 -77 -302
-108 -223 -128 -281 -132 -395 -4 -110 6 -159 51 -251 58 -119 180 -221 304
-254 78 -21 123 -23 348 -22 123 1 233 -2 248 -8 29 -11 32 -37 10 -81 -13
-24 -15 -52 -10 -142 10 -193 54 -306 157 -409 86 -85 196 -134 318 -141 130
-8 382 76 697 231 208 103 544 228 718 268 8 2 92 22 210 50 62 14 261 48 360
60 28 3 75 15 105 26 157 56 321 97 490 123 45 7 83 15 290 61 113 25 216 48
230 50 14 3 48 9 75 14 67 14 94 19 135 26 19 4 44 8 55 10 86 16 136 24 170
29 22 4 51 8 65 10 14 3 50 7 80 10 30 4 62 8 70 10 14 4 145 19 260 30 30 3
73 8 95 10 235 25 793 25 990 1 17 -2 57 -7 90 -11 33 -3 71 -8 85 -10 14 -2
45 -7 70 -10 141 -19 319 -86 421 -160 26 -19 85 -50 131 -69 46 -19 162 -73
258 -119 96 -47 220 -101 275 -120 55 -19 148 -56 206 -81 286 -123 772 -280
1092 -352 22 -5 28 -7 177 -42 109 -27 259 -57 370 -76 19 -3 44 -8 55 -10 11
-2 43 -7 70 -10 28 -4 61 -8 75 -11 65 -11 215 -29 345 -40 39 -3 84 -8 102
-10 17 -3 71 -7 120 -10 48 -3 126 -8 173 -11 118 -7 262 -14 415 -19 72 -2
218 -8 325 -11 367 -14 475 -11 615 16 75 15 151 7 206 -21 40 -22 68 -46 154
-139 55 -59 109 -82 190 -79 73 2 155 37 310 130 50 30 104 61 120 69 17 8 47
28 69 44 21 16 61 35 88 43 45 11 62 10 145 -8 134 -29 125 -27 258 -44 124
-15 537 -22 720 -11 72 4 164 9 205 11 184 9 552 38 640 50 19 2 60 7 90 10
30 4 66 8 80 10 14 2 50 7 80 10 30 4 62 9 70 10 8 1 49 8 90 15 41 6 109 18
150 27 41 8 85 17 98 19 267 52 706 196 832 274 77 48 133 76 195 99 72 27 94
31 206 38 100 6 201 -15 311 -65 62 -29 144 -54 213 -66 17 -3 75 -12 130 -21
150 -24 225 -43 264 -68 34 -21 47 -22 256 -24 819 -5 2033 -5 2100 1 44 3
116 9 160 11 44 2 118 7 165 10 47 3 117 8 155 10 123 8 229 17 245 20 8 2 47
6 85 10 39 4 79 9 90 11 11 2 49 7 83 10 35 3 71 7 80 9 10 1 55 6 102 10 47
4 94 9 105 11 39 8 243 17 380 18 135 0 143 -1 215 -31 181 -75 329 -102 525
-99 151 3 199 17 261 74 23 20 56 64 73 97 79 152 199 220 496 285 227 50 502
123 532 141 17 11 69 33 115 49 368 128 969 402 1233 562 17 10 37 21 45 25
107 49 721 449 845 550 6 5 26 19 45 33 19 13 44 32 55 42 11 9 65 52 120 94
362 280 833 722 1176 1105 37 41 77 86 90 100 31 34 58 65 154 179 44 52 82
97 85 100 15 14 168 211 262 335 189 253 366 515 527 783 85 142 125 213 226
397 53 98 265 523 265 532 0 5 13 35 29 68 63 130 81 173 81 186 0 8 4 19 9
24 22 23 202 497 292 770 67 200 202 656 224 755 2 8 22 92 44 185 47 194 68
289 75 325 2 14 7 36 10 50 3 14 8 36 10 50 4 22 15 79 31 160 8 40 24 132 29
165 11 73 19 121 22 140 3 11 7 38 9 60 2 22 7 58 10 80 11 70 13 88 25 190 6
55 13 111 15 125 2 14 6 61 10 105 3 44 8 98 10 120 4 36 7 81 20 295 7 124
17 336 21 460 5 169 5 776 -1 875 -2 44 -7 136 -10 205 -4 69 -8 141 -10 160
-2 19 -6 73 -10 120 -4 47 -9 101 -11 120 -2 19 -7 58 -9 85 -7 71 -15 136
-20 165 -2 14 -7 50 -10 80 -4 30 -9 64 -11 75 -2 10 -6 37 -9 60 -16 111 -76
421 -94 483 -5 18 -10 35 -10 37 0 3 -2 18 -5 33 -4 15 -9 37 -11 50 -3 12 -7
30 -10 40 -7 28 -25 96 -29 112 -33 128 -112 381 -164 520 -3 8 -6 20 -7 25
-2 6 -33 90 -69 188 -82 219 -135 332 -233 501 -42 72 -104 178 -137 236 -80
138 -174 234 -277 283 -112 53 -187 61 -282 30 -120 -38 -311 -305 -387 -538
-13 -38 -32 -83 -42 -98 -11 -15 -44 -83 -75 -150 -65 -145 -227 -474 -283
-572 -21 -38 -42 -77 -47 -85 -4 -8 -29 -53 -56 -100 -27 -47 -58 -100 -69
-119 -99 -174 -458 -711 -545 -816 -5 -5 -44 -57 -88 -115 -44 -58 -82 -107
-85 -110 -3 -3 -30 -36 -60 -75 -30 -38 -84 -103 -119 -145 -34 -41 -79 -95
-100 -119 -20 -24 -45 -53 -56 -65 -11 -12 -47 -53 -80 -91 -33 -38 -71 -81
-85 -96 -14 -14 -70 -75 -125 -134 -217 -236 -615 -624 -835 -815 -52 -46
-108 -95 -125 -109 -28 -24 -103 -85 -149 -121 -10 -8 -26 -22 -35 -30 -47
-44 -206 -155 -328 -229 -76 -46 -154 -94 -173 -106 -31 -20 -435 -268 -485
-298 -21 -12 -71 -43 -190 -117 -121 -75 -158 -96 -320 -186 -22 -12 -89 -48
-150 -80 -60 -31 -132 -69 -160 -84 -27 -15 -90 -49 -140 -75 -49 -26 -122
-67 -161 -90 -111 -67 -259 -139 -426 -206 -84 -34 -157 -65 -163 -70 -5 -5
-15 -9 -22 -9 -13 0 -135 -59 -310 -149 -84 -43 -159 -58 -228 -45 l-30 5 80
82 c44 45 97 102 118 126 47 55 207 293 207 309 0 7 4 12 8 12 4 0 15 21 25
48 57 164 28 215 -273 476 -175 152 -166 145 -260 216 -47 35 -179 159 -295
275 -115 116 -234 232 -262 257 -57 50 -78 88 -68 128 3 14 50 68 103 120 53
52 115 118 137 145 22 28 43 52 46 55 15 13 109 149 109 158 0 6 4 12 8 14 15
5 101 171 142 273 40 98 95 301 105 385 3 25 8 63 11 85 7 48 8 335 0 385 -2
19 -7 58 -11 85 -4 28 -8 61 -11 75 -2 14 -7 41 -10 60 -3 19 -18 87 -34 150
-88 349 -230 649 -445 946 -48 65 -90 121 -94 124 -3 3 -40 43 -81 90 -187
211 -363 363 -699 600 -50 36 -145 103 -211 150 -66 47 -138 98 -160 113 -68
48 -44 70 45 42 96 -31 159 -16 276 64 78 52 141 38 193 -44 68 -109 189 -191
376 -256 270 -93 487 -30 656 191 52 68 70 71 158 27 230 -115 474 -144 702
-83 470 125 520 142 611 214 76 59 118 164 124 312 3 68 16 108 39 120 10 5
71 10 137 10 133 0 157 3 263 32 174 47 467 241 637 422 166 176 327 442 357
588 22 110 10 234 -34 345 -117 294 -401 476 -735 474 -49 -1 -100 -3 -111 -5
-110 -22 -147 -17 -163 22 -11 27 -15 42 -26 117 -8 56 -25 106 -46 137 -11
14 -19 30 -19 35 0 18 -98 97 -155 124 -190 90 -362 82 -605 -29 -72 -33 -97
-31 -106 5 -5 20 0 30 22 49 16 13 33 23 37 24 16 0 130 83 176 128 84 81 131
179 131 275 0 57 30 81 89 73 149 -22 254 -26 392 -13 133 13 266 56 374 121
68 41 81 52 147 118 160 158 232 371 204 598 -8 59 -16 90 -51 186 -13 37 -19
67 -14 75 4 7 25 14 46 16 66 4 195 42 270 78 94 46 177 110 258 197 68 74
183 240 216 312 28 62 24 132 -11 209 -52 110 -44 189 33 343 118 235 137 524
46 721 -10 24 -19 45 -19 48 0 3 -15 29 -34 58 -125 191 -331 297 -556 284
-97 -6 -118 -9 -215 -38 -67 -20 -191 -76 -264 -120 -47 -28 -73 -19 -112 43
-114 177 -282 223 -459 125 -33 -18 -150 -101 -195 -139 -52 -43 -157 -122
-218 -165 -58 -40 -76 -48 -119 -49 -74 -3 -138 31 -138 72 0 22 35 47 72 51
63 6 159 63 233 137 118 119 172 258 162 416 -6 88 -16 124 -61 222 -46 100
-40 110 89 149 79 24 212 88 265 128 19 14 44 33 55 41 36 27 176 173 193 202
9 15 20 28 24 28 4 0 8 7 8 15 0 8 4 15 8 15 10 0 79 144 88 181 18 78 22 109
19 168 -4 78 -7 89 -33 158 -26 68 -80 141 -148 200 -98 83 -101 111 -21 194
59 62 93 121 113 199 18 73 15 171 -7 211 -17 29 -57 69 -69 69 -18 0 -81 69
-96 105 -20 48 -18 125 5 274 32 207 23 451 -21 591 -83 267 -222 443 -420
534 -260 121 -552 49 -779 -191 -133 -141 -234 -301 -279 -440 -26 -83 -49
-133 -58 -133 -4 0 -40 32 -81 69 -194 181 -387 183 -579 7 -115 -105 -231
-296 -257 -423 -3 -15 -8 -38 -11 -51 -2 -12 -16 -59 -31 -105 -15 -45 -27
-84 -28 -87 -29 -99 -156 -305 -243 -395 -60 -61 -272 -259 -282 -263 -3 -1
-15 16 -26 39 -25 57 -117 147 -179 175 -158 74 -273 -21 -400 -331 -46 -113
-79 -172 -174 -310 -151 -221 -228 -277 -512 -378 -68 -25 -150 -56 -183 -71
-32 -14 -68 -26 -81 -26 -23 0 -29 5 -180 180 -171 198 -357 386 -601 607
-126 113 -406 347 -478 398 -16 11 -33 25 -40 30 -25 24 -270 197 -396 282
-174 117 -308 199 -500 307 -85 48 -166 94 -180 102 -167 96 -673 325 -930
421 -124 46 -255 94 -265 97 -5 1 -73 23 -150 48 -77 25 -183 57 -235 72 -52
15 -115 34 -140 41 -38 11 -309 79 -360 90 -8 2 -69 15 -135 30 -117 26 -332
67 -409 79 -21 4 -48 8 -60 11 -12 2 -38 7 -58 10 -54 7 -109 16 -138 21 -42
7 -251 33 -320 39 -36 4 -76 8 -90 10 -14 2 -65 7 -115 10 -49 4 -102 8 -117
10 -218 26 -1110 26 -1328 0 -44 -5 -171 -16 -230 -20 -25 -1 -70 -6 -100 -9
-111 -14 -366 -47 -390 -51 -14 -2 -43 -7 -65 -10 -22 -3 -62 -10 -90 -15 -27
-6 -67 -12 -89 -16 -21 -3 -48 -8 -60 -10 -11 -2 -37 -7 -56 -10 -31 -6 -382
-80 -420 -89 -8 -2 -46 -11 -85 -20 -221 -51 -555 -150 -805 -236 -420 -146
-1000 -404 -1370 -609 -41 -23 -104 -58 -140 -78 -36 -20 -85 -48 -110 -64
-25 -15 -63 -37 -84 -49 -139 -76 -701 -461 -796 -546 -8 -7 -46 -38 -85 -68
-38 -31 -79 -64 -90 -73 -11 -9 -47 -39 -80 -67 -33 -27 -69 -59 -81 -70 -12
-11 -57 -51 -100 -90 -138 -121 -486 -477 -559 -570 -137 -177 -171 -190 -305
-120 -125 66 -305 152 -345 166 -134 45 -215 151 -229 301 -25 271 -179 421
-388 377 -24 -5 -84 -30 -134 -56 -50 -25 -98 -43 -107 -40 -15 6 -26 39 -66
207 -44 183 -111 317 -210 418 -132 135 -262 174 -378 114 -120 -61 -133 -52
-134 91 -2 299 -57 444 -233 618 -114 113 -208 140 -310 89 -50 -25 -151 -118
-216 -199 -53 -65 -67 -55 -114 77 -39 109 -116 274 -142 303 -8 8 -14 19 -14
23 0 15 -111 156 -172 217 -141 144 -275 223 -435 259 -52 12 -157 18 -203 13z
m19541 -1770 c-133 -266 -306 -454 -505 -553 -17 -8 -41 -25 -54 -37 -14 -13
-57 -38 -96 -56 -39 -19 -92 -51 -119 -71 -109 -83 -136 -86 -210 -25 -47 39
-47 54 1 33 68 -28 126 -26 195 9 177 89 407 276 581 472 111 127 134 154 194
243 30 45 57 82 59 82 2 0 -19 -44 -46 -97z m-10511 -14268 c-24 -25 -46 -45
-49 -45 -3 0 15 20 39 45 24 25 46 45 49 45 3 0 -15 -20 -39 -45z m3323 -4
c-15 -22 -30 -38 -32 -36 -3 4 49 75 56 75 2 0 -8 -18 -24 -39z m-43 -54 c0
-2 -15 -16 -32 -33 l-33 -29 29 33 c28 30 36 37 36 29z m-3370 -20 c0 -2 -15
-16 -32 -33 l-33 -29 29 33 c28 30 36 37 36 29z m3305 -57 c-3 -5 -12 -10 -18
-10 -7 0 -6 4 3 10 19 12 23 12 15 0z m-3445 -74 c0 -2 -8 -10 -17 -17 -16
-13 -17 -12 -4 4 13 16 21 21 21 13z m3330 -29 c0 -2 -12 -14 -27 -28 l-28
-24 24 28 c23 25 31 32 31 24z m-3370 -10 c0 -2 -15 -16 -32 -33 l-33 -29 29
33 c28 30 36 37 36 29z m3310 -41 c0 -2 -8 -10 -17 -17 -16 -13 -17 -12 -4 4
13 16 21 21 21 13z m-3410 -49 c0 -2 -17 -19 -37 -38 l-38 -34 34 38 c33 34
41 42 41 34z m3350 -1 c0 -2 -8 -10 -17 -17 -16 -13 -17 -12 -4 4 13 16 21 21
21 13z m-90 -70 c0 -2 -8 -10 -17 -17 -16 -13 -17 -12 -4 4 13 16 21 21 21 13z
m-3365 -36 c-3 -5 -12 -10 -18 -10 -7 0 -6 4 3 10 19 12 23 12 15 0z m-65 -53
c0 -2 -17 -19 -37 -38 l-38 -34 34 38 c33 34 41 42 41 34z m-90 -87 c0 -5 -5
-10 -11 -10 -5 0 -7 5 -4 10 3 6 8 10 11 10 2 0 4 -4 4 -10z m3240 -34 c0 -2
-8 -10 -17 -17 -16 -13 -17 -12 -4 4 13 16 21 21 21 13z m-3290 -9 c0 -2 -15
-16 -32 -33 l-33 -29 29 33 c28 30 36 37 36 29z m3170 -91 c0 -2 -8 -10 -17
-17 -16 -13 -17 -12 -4 4 13 16 21 21 21 13z m-3280 -9 c0 -1 -24 -25 -52 -52
l-53 -50 50 53 c46 48 55 57 55 49z m3190 -71 c0 -2 -8 -10 -17 -17 -16 -13
-17 -12 -4 4 13 16 21 21 21 13z m-40 -39 c0 -2 -12 -14 -27 -28 l-28 -24 24
28 c23 25 31 32 31 24z m-3290 -21 c0 -2 -8 -10 -17 -17 -16 -13 -17 -12 -4 4
13 16 21 21 21 13z m-60 -61 c-13 -14 -26 -23 -28 -20 -4 4 38 44 47 45 3 0
-6 -11 -19 -25z m3260 -18 c0 -2 -17 -19 -37 -38 l-38 -34 34 38 c33 34 41 42
41 34z m-3340 -51 c0 -2 -8 -10 -17 -17 -16 -13 -17 -12 -4 4 13 16 21 21 21
13z m3229 -76 c-23 -27 -44 -50 -47 -50 -5 0 14 25 57 73 42 46 35 30 -10 -23z
m-3269 37 c0 -2 -15 -16 -32 -33 l-33 -29 29 33 c28 30 36 37 36 29z m-111
-109 c-2 -2 -20 -16 -39 -33 l-35 -30 34 37 c19 21 37 36 39 33 3 -3 3 -6 1
-7z m3331 8 c0 -2 -8 -10 -17 -17 -16 -13 -17 -12 -4 4 13 16 21 21 21 13z
m-56 -73 c-34 -46 -50 -64 -39 -43 13 24 55 80 61 80 3 0 -7 -17 -22 -37z
m-3354 -7 c0 -3 -4 -8 -10 -11 -5 -3 -10 -1 -10 4 0 6 5 11 10 11 6 0 10 -2
10 -4z m-90 -71 c-7 -8 -10 -24 -7 -35 3 -11 1 -18 -4 -14 -13 8 -11 38 3 52
17 17 23 15 8 -3z m3380 -15 c-12 -16 -24 -30 -26 -30 -3 0 4 14 16 30 12 17
24 30 26 30 3 0 -4 -13 -16 -30z"/>
</g>
</svg>
